<?xml version="1.0" encoding="utf-8"?>
<!-- Generator: Adobe Illustrator 16.0.0, SVG Export Plug-In . SVG Version: 6.00 Build 0)  -->
<!DOCTYPE svg PUBLIC "-//W3C//DTD SVG 1.1//EN" "http://www.w3.org/Graphics/SVG/1.1/DTD/svg11.dtd">
<svg version="1.1" id="Layer_1" xmlns="http://www.w3.org/2000/svg" xmlns:xlink="http://www.w3.org/1999/xlink" x="0px" y="0px"
	 width="171px" height="231px" viewBox="0 0 171 231" enable-background="new 0 0 171 231" xml:space="preserve">
<path fill-rule="evenodd" clip-rule="evenodd" fill="#FFFFFF" stroke="#222222" stroke-width="6" stroke-linecap="round" stroke-linejoin="round" stroke-miterlimit="10" d="
	M6.261,99.153c0,12.469,5.366,23.634,13.888,31.411v73.595h129.51v-71.741c9.784-7.773,16.057-19.769,16.057-33.264
	c0-13.456-6.273-25.452-16.057-33.225V8c0,0-11.048,33.62-61.715,32.95C37.276,40.279,20.149,9.303,20.149,9.303v58.479
	C11.626,75.516,6.261,86.724,6.261,99.153z"/>
<path fill-rule="evenodd" clip-rule="evenodd" fill="none" stroke="#222222" stroke-width="6" stroke-linecap="round" stroke-linejoin="round" stroke-miterlimit="10" d="
	M6.261,99.153c0,23.479,19.06,42.501,42.578,42.501c15.942,0,29.871-8.763,37.131-21.703c7.3,12.94,21.231,21.703,37.173,21.703
	c23.519,0,42.574-19.021,42.574-42.501c0-23.439-19.056-42.46-42.574-42.46c-15.941,0-29.873,8.762-37.173,21.703
	c-7.26-12.941-21.188-21.703-37.131-21.703C25.32,56.693,6.261,75.714,6.261,99.153z"/>
<path fill-rule="evenodd" clip-rule="evenodd" fill="none" stroke="#222222" stroke-width="6" stroke-linecap="round" stroke-linejoin="round" stroke-miterlimit="10" d="
	M27.528,99.153c0-12.194,9.944-22.098,22.177-22.098c12.233,0,22.178,9.904,22.178,22.098c0,12.233-9.944,22.1-22.178,22.1
	C37.473,121.253,27.528,111.387,27.528,99.153z"/>
<path fill-rule="evenodd" clip-rule="evenodd" fill="none" stroke="#222222" stroke-width="6" stroke-linecap="round" stroke-linejoin="round" stroke-miterlimit="10" d="
	M102.268,99.153c0-12.194,9.942-22.098,22.177-22.098c12.231,0,22.135,9.904,22.135,22.098c0,12.233-9.904,22.1-22.135,22.1
	C112.21,121.253,102.268,111.387,102.268,99.153z"/>
<path fill-rule="evenodd" clip-rule="evenodd" fill="none" stroke="#222222" stroke-width="6" stroke-linecap="round" stroke-linejoin="round" stroke-miterlimit="10" d="
	M42.762,99.153c0-3.828,3.117-6.905,6.943-6.905c3.827,0,6.944,3.077,6.944,6.905c0,3.827-3.117,6.944-6.944,6.944
	C45.879,106.098,42.762,102.98,42.762,99.153z"/>
<path fill-rule="evenodd" clip-rule="evenodd" fill="none" stroke="#222222" stroke-width="6" stroke-linecap="round" stroke-linejoin="round" stroke-miterlimit="10" d="
	M117.5,99.153c0-3.828,3.114-6.905,6.944-6.905c3.827,0,6.944,3.077,6.944,6.905c0,3.827-3.117,6.944-6.944,6.944
	C120.614,106.098,117.5,102.98,117.5,99.153z"/>
<path fill-rule="evenodd" clip-rule="evenodd" fill="none" stroke="#222222" stroke-width="6" stroke-linecap="round" stroke-linejoin="round" stroke-miterlimit="10" d="
	M6.261,99.153c0,23.479,19.06,42.501,42.578,42.501c1.815,0,3.63-0.123,5.366-0.358c6.273-0.79,12.075-2.917,17.166-6.077
	l15.272,35.907l17.241-34.05c5.803,2.921,12.354,4.578,19.259,4.578c23.519,0,42.574-19.021,42.574-42.501
	c0-23.439-19.056-42.46-42.574-42.46c-15.941,0-29.873,8.762-37.173,21.703c-7.26-12.941-21.188-21.703-37.131-21.703
	C25.32,56.693,6.261,75.714,6.261,99.153z"/>
<path fill-rule="evenodd" clip-rule="evenodd" fill="none" stroke="#222222" stroke-width="6" stroke-linecap="round" stroke-linejoin="round" stroke-miterlimit="10" d="
	M6.261,99.153c0,12.509,5.405,23.757,14.007,31.526l-0.119,0.124v72.485c0,0,32.753-14.797,33.464-61.911l0.592-0.081
	c6.273-0.79,12.075-2.917,17.166-6.077l15.272,35.907l17.241-34.05c3.831,1.935,7.935,3.276,12.315,3.985
	c-0.042,48.181,33.461,63.529,33.461,63.529v-72.173c9.784-7.773,16.057-19.769,16.057-33.264c0-23.439-19.056-42.46-42.574-42.46
	c-15.941,0-29.873,8.762-37.173,21.703c-7.26-12.941-21.188-21.703-37.131-21.703C25.32,56.693,6.261,75.714,6.261,99.153z"/>
</svg>
