<?xml version="1.0" encoding="utf-8"?>
<!-- Generator: Adobe Illustrator 16.0.0, SVG Export Plug-In . SVG Version: 6.00 Build 0)  -->
<!DOCTYPE svg PUBLIC "-//W3C//DTD SVG 1.1//EN" "http://www.w3.org/Graphics/SVG/1.1/DTD/svg11.dtd">
<svg version="1.1" id="Layer_1" xmlns="http://www.w3.org/2000/svg" xmlns:xlink="http://www.w3.org/1999/xlink" x="0px" y="0px"
	 width="174px" height="213px" viewBox="0 0 174 213" enable-background="new 0 0 174 213" xml:space="preserve">
<path fill-rule="evenodd" clip-rule="evenodd" fill="#FFFFFF" stroke="#00A693" stroke-width="6" stroke-linecap="round" stroke-linejoin="round" stroke-miterlimit="10" d="
	M7,95.129c0,12.469,5.366,23.634,13.888,31.411v73.594h129.51v-71.74c9.784-7.773,16.058-19.77,16.058-33.265
	c0-13.456-6.273-25.452-16.058-33.225V3.976c0,0-11.048,33.62-61.715,32.95C38.016,36.255,20.888,5.278,20.888,5.278v58.479
	C12.366,71.492,7,82.699,7,95.129z"/>
<path fill-rule="evenodd" clip-rule="evenodd" fill="none" stroke="#00A693" stroke-width="6" stroke-linecap="round" stroke-linejoin="round" stroke-miterlimit="10" d="
	M7,95.129c0,23.479,19.06,42.501,42.578,42.501c15.942,0,29.871-8.764,37.131-21.703c7.3,12.939,21.232,21.703,37.173,21.703
	c23.518,0,42.574-19.021,42.574-42.501c0-23.439-19.057-42.46-42.574-42.46c-15.941,0-29.873,8.762-37.173,21.703
	C79.449,61.43,65.52,52.668,49.578,52.668C26.06,52.668,7,71.69,7,95.129z"/>
<path fill-rule="evenodd" clip-rule="evenodd" fill="none" stroke="#00A693" stroke-width="6" stroke-linecap="round" stroke-linejoin="round" stroke-miterlimit="10" d="
	M28.268,95.129c0-12.194,9.944-22.098,22.177-22.098c12.233,0,22.178,9.904,22.178,22.098c0,12.233-9.944,22.101-22.178,22.101
	C38.212,117.229,28.268,107.362,28.268,95.129z"/>
<path fill-rule="evenodd" clip-rule="evenodd" fill="none" stroke="#00A693" stroke-width="6" stroke-linecap="round" stroke-linejoin="round" stroke-miterlimit="10" d="
	M103.007,95.129c0-12.194,9.942-22.098,22.178-22.098c12.23,0,22.135,9.904,22.135,22.098c0,12.233-9.904,22.101-22.135,22.101
	C112.949,117.229,103.007,107.362,103.007,95.129z"/>
<path fill-rule="evenodd" clip-rule="evenodd" fill="none" stroke="#00A693" stroke-width="6" stroke-linecap="round" stroke-linejoin="round" stroke-miterlimit="10" d="
	M43.501,95.129c0-3.828,3.117-6.905,6.943-6.905c3.827,0,6.944,3.077,6.944,6.905c0,3.827-3.117,6.944-6.944,6.944
	C46.618,102.073,43.501,98.956,43.501,95.129z"/>
<path fill-rule="evenodd" clip-rule="evenodd" fill="none" stroke="#00A693" stroke-width="6" stroke-linecap="round" stroke-linejoin="round" stroke-miterlimit="10" d="
	M118.239,95.129c0-3.828,3.114-6.905,6.945-6.905c3.826,0,6.943,3.077,6.943,6.905c0,3.827-3.117,6.944-6.943,6.944
	C121.354,102.073,118.239,98.956,118.239,95.129z"/>
<path fill-rule="evenodd" clip-rule="evenodd" fill="none" stroke="#00A693" stroke-width="6" stroke-linecap="round" stroke-linejoin="round" stroke-miterlimit="10" d="
	M7,95.129c0,23.479,19.06,42.501,42.578,42.501c1.815,0,3.63-0.123,5.366-0.358c6.273-0.79,12.075-2.917,17.166-6.077l15.272,35.907
	l17.24-34.05c5.803,2.921,12.354,4.578,19.26,4.578c23.518,0,42.574-19.021,42.574-42.501c0-23.439-19.057-42.46-42.574-42.46
	c-15.941,0-29.873,8.762-37.173,21.703C79.449,61.43,65.52,52.668,49.578,52.668C26.06,52.668,7,71.69,7,95.129z"/>
<path fill-rule="evenodd" clip-rule="evenodd" fill="none" stroke="#00A693" stroke-width="6" stroke-linecap="round" stroke-linejoin="round" stroke-miterlimit="10" d="
	M7,95.129c0,12.509,5.405,23.757,14.007,31.526l-0.119,0.123v72.484c0,0,32.753-14.797,33.464-61.91l0.592-0.081
	c6.273-0.79,12.075-2.917,17.166-6.077l15.272,35.907l17.24-34.05c3.83,1.935,7.935,3.275,12.315,3.984
	c-0.042,48.182,33.461,63.529,33.461,63.529v-72.172c9.784-7.773,16.058-19.77,16.058-33.265c0-23.439-19.057-42.46-42.574-42.46
	c-15.941,0-29.873,8.762-37.173,21.703C79.449,61.43,65.52,52.668,49.578,52.668C26.06,52.668,7,71.69,7,95.129z"/>
</svg>
