<?xml version="1.0" encoding="iso-8859-1"?>
<!-- Generator: Adobe Illustrator 16.0.0, SVG Export Plug-In . SVG Version: 6.00 Build 0)  -->
<!DOCTYPE svg PUBLIC "-//W3C//DTD SVG 1.1//EN" "http://www.w3.org/Graphics/SVG/1.1/DTD/svg11.dtd">
<svg xmlns="http://www.w3.org/2000/svg" xmlns:xlink="http://www.w3.org/1999/xlink" version="1.1" id="Capa_1" x="0px" y="0px" width="512px" height="512px" viewBox="0 0 98.503 98.504" style="enable-background:new 0 0 98.503 98.504;" xml:space="preserve">
<g>
	<g>
		<path d="M71.007,81.408l0.229-0.273l-0.334-0.123c-1.267-0.466-2.452-1.18-3.524-2.115l-0.22-0.19l-0.155,0.245    c-1.634,2.537-4.042,4.335-6.944,4.744l0,0c-0.418,0.062-0.834,0.09-1.246,0.09c-2.455-0.002-4.787-1.016-6.734-2.706l-0.219-0.19    l-0.157,0.242c-1.631,2.532-4.037,4.324-6.936,4.734c-0.415,0.06-0.836,0.087-1.25,0.087c-2.46,0-4.796-1.019-6.742-2.718    l-0.217-0.189l-0.158,0.243c-0.784,1.214-1.748,2.247-2.857,3.051l-0.292,0.213l0.298,0.199c3.761,2.508,8.588,4.235,14.74,4.235    c1.547,0,3.178-0.11,4.899-0.344l0,0h0.002C61.755,89.378,67.361,85.75,71.007,81.408z" fill="#FFFFFF"/>
		<path d="M74.543,74.355c-0.097,0.056-0.171,0.08-0.198,0.078c-0.432,0-0.847-0.031-1.285-0.031    c-2.451-0.002-4.783-1.073-6.73-2.771l-0.217-0.19l-0.157,0.244c-1.636,2.532-4.038,4.293-6.938,4.702    c-0.412,0.06-0.828,0.072-1.248,0.072c-2.453-0.002-4.785-1.022-6.731-2.715l-0.218-0.19l-0.157,0.242    c-1.634,2.532-4.038,4.319-6.935,4.729c-0.419,0.061-0.835,0.086-1.251,0.086c-2.454-0.002-4.786-1.03-6.73-2.725l-0.219-0.191    l-0.156,0.244c-0.822,1.275-1.815,2.471-2.957,3.338c-1.146,0.869-2.429,1.414-3.854,1.414h-0.006h-0.005    c0,0-0.196,0.008-0.451,0.017c-0.255,0.009-0.569,0.017-0.795,0.017h-0.521l0.323,0.406c1.229,1.545,2.957,3.258,3.958,4.367    v0.288l0.35-0.151c2.061-0.891,3.015-2.173,4.027-3.729l0.004-0.006l0.607-1.08l0.752,0.697l0,0    c1.898,1.965,4.273,3.098,6.655,3.1l0,0h0.002h0.003c0.352,0,0.729-0.023,1.09-0.075c2.761-0.392,5.08-2.269,6.547-5.047    l0.437-0.816l0.649,0.668l-0.004-0.004c1.903,1.97,4.231,3.104,6.623,3.104l0,0h0.002h0.002c0.353,0,0.705-0.023,1.061-0.073    c2.765-0.392,5.068-2.267,6.538-5.046l0.431-0.818l0.643,0.666c1.312,1.365,2.838,2.328,4.438,2.795l0.17,0.051l0.104-0.145    c1.268-1.771,2.252-3.502,3.011-5.342l0.182-0.44l-0.465,0.101C74.759,74.23,74.644,74.305,74.543,74.355z" fill="#FFFFFF"/>
		<path d="M73.273,66.85l0.033,0.248l-0.035-0.248c-0.42,0.061-0.834,0.09-1.252,0.09c-2.453-0.002-4.785-1.016-6.729-2.707    l-0.221-0.189l-0.155,0.242c-1.634,2.529-4.039,4.322-6.938,4.732c-0.416,0.06-0.83,0.088-1.242,0.088    c-2.457,0-4.787-1.016-6.736-2.711l-0.22-0.188l-0.154,0.243c-1.635,2.535-4.039,4.324-6.934,4.73    c-0.422,0.061-0.841,0.09-1.257,0.09c-2.454,0-4.784-1.014-6.728-2.705l-0.218-0.188l-0.158,0.243    c-1.633,2.529-4.037,4.32-6.935,4.732c-0.414,0.062-0.831,0.09-1.244,0.09c-1.009,0-1.997-0.192-2.953-0.514l-0.525-0.178    l0.215,0.511c0.78,1.851,1.766,3.817,3.238,5.964l0.029,0.041l0.143,0.094l0.052,0.033l0.061,0.006    c0.261,0.027,0.521,0.041,0.782,0.041c0.35,0,0.705-0.023,1.059-0.071h0.001l0,0c2.761-0.392,5.063-2.271,6.531-5.048l0.434-0.816    l0.639,0.665c1.899,1.968,4.227,3.104,6.614,3.104l0,0h0.005h0.002c0.352,0,0.708-0.024,1.064-0.074    c2.762-0.389,5.066-2.268,6.535-5.045l0.431-0.815l0.642,0.665c1.901,1.969,4.229,3.105,6.617,3.105l0,0h0.002h0.002    c0.353,0,0.705-0.024,1.061-0.074c2.765-0.391,5.072-2.27,6.54-5.047l0.431-0.817l0.641,0.665c1.91,1.984,4.25,2.836,6.609,2.93    c0.204,0.01,0.403,0.012,0.594,0.012c1.258,0,2.071-0.164,2.084-0.166l0.142-0.029l0.048-0.137    c0.843-2.504,1.302-4.851,1.545-6.877l0.066-0.539l-0.455,0.304C75.931,66.092,74.652,66.654,73.273,66.85z" fill="#FFFFFF"/>
		<path d="M77.668,59.786L69.365,0l-9.807,14.805l-16.755,2.532l-16.798,2.22L12.469,8.058l8.628,59.737L21.1,67.8    c0,0.002,0.098,0.601,0.257,1.282c0.078,0.342,0.174,0.704,0.279,1.027c0.107,0.324,0.22,0.604,0.365,0.809l0.032,0.045    l0.048,0.025c1.288,0.72,2.665,1.113,4.069,1.113c0.352,0,0.704-0.022,1.056-0.072l-0.035-0.25l0.035,0.248    c2.763-0.394,5.067-2.271,6.538-5.047l0.431-0.816l0.642,0.665c1.896,1.965,4.225,3.103,6.609,3.103l0,0h0.002l0,0h0.003    c0.354,0,0.71-0.025,1.07-0.074c2.76-0.389,5.065-2.265,6.533-5.045l-0.002,0.004l0.433-0.823l0.643,0.667    c1.902,1.972,4.232,3.107,6.623,3.107l0,0l0,0h0.002h0.002c0.349,0,0.703-0.022,1.057-0.074c2.763-0.39,5.068-2.271,6.537-5.045    l0.433-0.817l0.642,0.664c1.9,1.972,4.229,3.106,6.615,3.106l0,0h0.004c0.342,0,0.705-0.002,1.078-0.076    c2.98-0.598,4.481-2.162,4.506-2.187l0.054-0.053l0.012-0.075c0.079-0.436,0.104-0.951,0.104-1.453    c0-1.014-0.104-1.963-0.104-1.968v-0.004H77.668z M21.578,39.851c0-5.596,4.116-10.483,9.815-11.29    c0.542-0.075,1.083-0.114,1.615-0.114c5.594,0,10.48,4.117,11.287,9.815c0.077,0.545,0.114,1.084,0.114,1.617    c0,5.594-4.116,10.48-9.813,11.288c-0.542,0.074-1.082,0.114-1.614,0.114c-5.594,0-10.483-4.116-11.291-9.816    C21.613,40.921,21.578,40.383,21.578,39.851z M21.672,20.081l-4.238,0.6l-0.715-5.049L21.672,20.081z M46.841,45.713    c0.109-0.017,0.217-0.022,0.325-0.022c1.118,0,2.098,0.821,2.257,1.961l0.002,0.011l0.348,2.459    c0.009,0.052,0.011,0.11,0.011,0.177c0.002,0.34-0.104,0.846-0.271,1.391c-0.248,0.826-0.628,1.754-0.942,2.473    c-0.157,0.359-0.3,0.668-0.401,0.886c-0.003,0.004-0.005,0.006-0.005,0.011c-0.33-0.371-0.941-1.074-1.521-1.846    c-0.331-0.439-0.654-0.902-0.904-1.333c-0.254-0.431-0.436-0.835-0.491-1.127l0,0c-0.151-0.778-0.238-1.39-0.286-1.804    c-0.024-0.209-0.039-0.366-0.048-0.475c-0.008-0.104-0.009-0.154-0.009-0.154v-0.013l-0.004-0.011    c-0.016-0.109-0.021-0.218-0.021-0.322C44.878,46.855,45.703,45.873,46.841,45.713l-0.035-0.248L46.841,45.713z M56.882,24.949    c0.543-0.077,1.083-0.114,1.615-0.114c5.596,0,10.482,4.117,11.288,9.817c0.075,0.543,0.112,1.084,0.112,1.616    c0,5.591-4.113,10.479-9.814,11.285c-0.543,0.076-1.082,0.114-1.617,0.114c-5.593,0-10.479-4.114-11.284-9.814    c-0.076-0.544-0.115-1.084-0.115-1.616C47.066,30.644,51.185,25.756,56.882,24.949L56.882,24.949z M67.206,8.482l0.714,5.046    l-4.238,0.601L67.206,8.482z" fill="#FFFFFF"/>
		<path d="M42.667,93.749c-0.003-0.021-0.144-0.743-0.651-1.483c-0.253-0.369-0.601-0.744-1.071-1.027    c-0.469-0.283-1.062-0.471-1.782-0.471c-0.196,0-0.404,0.015-0.619,0.045h-0.003h-0.003l0.038,0.244l-0.038-0.244    c-1.439,0.207-2.261,0.975-2.679,1.771c-0.423,0.795-0.473,1.604-0.475,1.979c0,0.133,0.009,0.209,0.009,0.215v0.008l0.503,3.719    l1.673-2.042l1.977,1.429l1.498-1.922l2.175,1.502l-0.552-3.715V93.749z" fill="#FFFFFF"/>
		<path d="M71.433,89.674c-0.008-0.02-0.147-0.74-0.65-1.482c-0.256-0.367-0.602-0.744-1.069-1.026    c-0.47-0.283-1.06-0.47-1.778-0.47c-0.197,0-0.406,0.015-0.627,0.045h-0.002l0,0c-1.441,0.207-2.264,0.972-2.682,1.767    c-0.423,0.796-0.473,1.606-0.475,1.981c0,0.131,0.008,0.209,0.008,0.216v0.006l0.502,3.722l1.675-2.041l1.974,1.428l1.502-1.922    l2.174,1.496l-0.551-3.711V89.674L71.433,89.674z" fill="#FFFFFF"/>
		<path d="M28.523,40.496c0.319,2.256,2.25,3.881,4.462,3.881c0.211,0,0.426-0.014,0.642-0.046c2.253-0.318,3.88-2.25,3.88-4.462    c0-0.211-0.014-0.424-0.045-0.639c-0.319-2.255-2.251-3.883-4.465-3.883c-0.211,0-0.424,0.015-0.639,0.047    c-2.252,0.32-3.88,2.25-3.88,4.46C28.479,40.068,28.494,40.281,28.523,40.496L28.523,40.496z" fill="#FFFFFF"/>
		<path d="M58.478,40.768c0.211,0,0.424-0.015,0.64-0.046c2.256-0.32,3.881-2.25,3.881-4.464c0-0.211-0.015-0.425-0.044-0.639    c-0.321-2.252-2.251-3.881-4.465-3.881c-0.211,0-0.424,0.016-0.639,0.046c-2.254,0.319-3.883,2.252-3.883,4.463    c0,0.212,0.016,0.425,0.047,0.638C54.333,39.139,56.263,40.768,58.478,40.768z" fill="#FFFFFF"/>
		<path d="M87.294,58.012c-0.002-0.013-0.477-3.354-2.111-7.445c-1.639-4.089-4.438-8.938-9.127-11.941l-0.468-0.3l0.087,0.551    l1.379,8.688l0.016,0.032c0.013,0.021,3.175,6.689,9.849,10.667l0.449,0.269L87.294,58.012z" fill="#FFFFFF"/>
		<path d="M16.771,47.023c-4.823,5.504-5.633,13.168-5.635,17.772c0,2.396,0.222,3.967,0.224,3.979l0.072,0.516l0.358-0.381    c5.307-5.682,6.492-12.967,6.498-12.988l0.007-0.037l-1.157-9.277L16.771,47.023z" fill="#FFFFFF"/>
	</g>
</g>
<g>
</g>
<g>
</g>
<g>
</g>
<g>
</g>
<g>
</g>
<g>
</g>
<g>
</g>
<g>
</g>
<g>
</g>
<g>
</g>
<g>
</g>
<g>
</g>
<g>
</g>
<g>
</g>
<g>
</g>
</svg>
