<?xml version="1.0" encoding="utf-8"?>
<!-- Generator: Adobe Illustrator 19.0.0, SVG Export Plug-In . SVG Version: 6.00 Build 0)  -->
<svg version="1.1" id="Layer_1" xmlns="http://www.w3.org/2000/svg" xmlns:xlink="http://www.w3.org/1999/xlink" x="0px" y="0px"
	 viewBox="0 0 600 600" style="enable-background:new 0 0 600 600;" xml:space="preserve">
<path id="XMLID_27_" fill="#f1f1f1" d="M600,196.3c0-42.7-16.5-81.6-43.4-110.8V0L481,39c-14.2-4-29.1-6.2-44.6-6.2c-56.9,0-107.1,29.3-136.4,73.5
	C270.7,62,220.5,32.7,163.6,32.7c-15.5,0-30.4,2.2-44.6,6.2L43.4,0v85.5C16.5,114.6,0,153.6,0,196.3s16.5,81.6,43.4,110.8V600h344.3
	c93.2,0,169-75.8,169-169v-124C583.5,277.9,600,239,600,196.3z M436.4,86.9c60.3,0,109.3,49,109.3,109.3s-49,109.3-109.3,109.3
	c-60.3,0-109.3-49-109.3-109.3S376.2,86.9,436.4,86.9z M300,286.3c7.7,11.6,16.8,22.2,27.2,31.5L300,345l-27.2-27.2
	C283.2,308.5,292.3,297.9,300,286.3z M272.9,196.3c0,60.3-49,109.3-109.3,109.3c-60.3,0-109.3-49-109.3-109.3s49-109.3,109.3-109.3
	C223.8,86.9,272.9,136,272.9,196.3z M387.6,545.8H194.4c28-30.2,45.1-70.5,45.1-114.8h-54.2c0,53.9-37.4,99.2-87.7,111.4V345.9
	c20.2,8.9,42.5,13.9,66,13.9c22,0,43.1-4.4,62.3-12.3l74.2,74.2l74.2-74.2c19.2,7.9,40.2,12.3,62.3,12.3c23.5,0,45.8-5,66-13.9V431
	C502.4,494.3,450.9,545.8,387.6,545.8z M109,196.3c0-30.1,24.4-54.6,54.6-54.6c30.1,0,54.6,24.4,54.6,54.6
	c0,30.1-24.4,54.6-54.6,54.6C133.4,250.9,109,226.4,109,196.3z M381.9,196.3c0-30.1,24.4-54.6,54.6-54.6c30.1,0,54.6,24.4,54.6,54.6
	c0,30.1-24.4,54.6-54.6,54.6C406.3,250.9,381.9,226.4,381.9,196.3z"/>
</svg>
